<?xml version="1.0" encoding="UTF-8" standalone="no"?>
<!DOCTYPE svg PUBLIC "-//W3C//DTD SVG 1.1//EN"
 "http://www.w3.org/Graphics/SVG/1.1/DTD/svg11.dtd">
<!-- Generated by graphviz version 2.43.0 (0)
 -->
<!-- Title: inc/actuator.h Pages: 1 -->
<svg width="1664pt" height="196pt"
 viewBox="0.00 0.00 1663.50 196.00" xmlns="http://www.w3.org/2000/svg" xmlns:xlink="http://www.w3.org/1999/xlink">
<g id="graph0" class="graph" transform="scale(1 1) rotate(0) translate(4 192)">
<title>inc/actuator.h</title>
<polygon fill="white" stroke="transparent" points="-4,4 -4,-192 1659.5,-192 1659.5,4 -4,4"/>
<!-- Node1 -->
<g id="node1" class="node">
<title>Node1</title>
<g id="a_node1"><a xlink:title="Small driver/cache layer for CiA&#45;402 over CANopen (RPDO1/TPDO1).">
<polygon fill="#bfbfbf" stroke="black" points="710.5,-168.5 710.5,-187.5 793.5,-187.5 793.5,-168.5 710.5,-168.5"/>
<text text-anchor="middle" x="752" y="-175.5" font-family="Helvetica,sans-Serif" font-size="10.00">inc/actuator.h</text>
</a>
</g>
</g>
<!-- Node2 -->
<g id="node2" class="node">
<title>Node2</title>
<g id="a_node2"><a xlink:href="cia402__wrapper_8h.html" target="_top" xlink:title="Minimal CiA&#45;402 helper wrapper for RPDO1/TPDO1 (master + actuator roles).">
<polygon fill="white" stroke="black" points="701,-112.5 701,-131.5 803,-131.5 803,-112.5 701,-112.5"/>
<text text-anchor="middle" x="752" y="-119.5" font-family="Helvetica,sans-Serif" font-size="10.00">cia402_wrapper.h</text>
</a>
</g>
</g>
<!-- Node1&#45;&gt;Node2 -->
<g id="edge1" class="edge">
<title>Node1&#45;&gt;Node2</title>
<path fill="none" stroke="midnightblue" d="M752,-168.08C752,-161.01 752,-150.86 752,-141.99"/>
<polygon fill="midnightblue" stroke="midnightblue" points="755.5,-141.75 752,-131.75 748.5,-141.75 755.5,-141.75"/>
</g>
<!-- Node3 -->
<g id="node3" class="node">
<title>Node3</title>
<g id="a_node3"><a xlink:href="canopen__space_8h.html" target="_top" xlink:title="Lightweight CANopen/Lely&#45;core “space” wrapper (init/start/tick/rx/tx helpers).">
<polygon fill="white" stroke="black" points="701.5,-56.5 701.5,-75.5 802.5,-75.5 802.5,-56.5 701.5,-56.5"/>
<text text-anchor="middle" x="752" y="-63.5" font-family="Helvetica,sans-Serif" font-size="10.00">canopen_space.h</text>
</a>
</g>
</g>
<!-- Node2&#45;&gt;Node3 -->
<g id="edge2" class="edge">
<title>Node2&#45;&gt;Node3</title>
<path fill="none" stroke="midnightblue" d="M752,-112.08C752,-105.01 752,-94.86 752,-85.99"/>
<polygon fill="midnightblue" stroke="midnightblue" points="755.5,-85.75 752,-75.75 748.5,-85.75 755.5,-85.75"/>
</g>
<!-- Node4 -->
<g id="node4" class="node">
<title>Node4</title>
<g id="a_node4"><a xlink:title=" ">
<polygon fill="white" stroke="#bfbfbf" points="0,-0.5 0,-19.5 76,-19.5 76,-0.5 0,-0.5"/>
<text text-anchor="middle" x="38" y="-7.5" font-family="Helvetica,sans-Serif" font-size="10.00">lely/config.h</text>
</a>
</g>
</g>
<!-- Node3&#45;&gt;Node4 -->
<g id="edge3" class="edge">
<title>Node3&#45;&gt;Node4</title>
<path fill="none" stroke="midnightblue" d="M701.17,-63.68C590.94,-60.37 321.55,-49.81 86.27,-20.01"/>
<polygon fill="midnightblue" stroke="midnightblue" points="86.52,-16.51 76.16,-18.71 85.63,-23.45 86.52,-16.51"/>
</g>
<!-- Node5 -->
<g id="node5" class="node">
<title>Node5</title>
<g id="a_node5"><a xlink:title=" ">
<polygon fill="white" stroke="#bfbfbf" points="94.5,-0.5 94.5,-19.5 147.5,-19.5 147.5,-0.5 94.5,-0.5"/>
<text text-anchor="middle" x="121" y="-7.5" font-family="Helvetica,sans-Serif" font-size="10.00">stdint.h</text>
</a>
</g>
</g>
<!-- Node3&#45;&gt;Node5 -->
<g id="edge4" class="edge">
<title>Node3&#45;&gt;Node5</title>
<path fill="none" stroke="midnightblue" d="M701.12,-64.05C599.55,-61.53 364.41,-52.57 157.76,-19.82"/>
<polygon fill="midnightblue" stroke="midnightblue" points="158.06,-16.32 147.63,-18.19 156.95,-23.23 158.06,-16.32"/>
</g>
<!-- Node6 -->
<g id="node6" class="node">
<title>Node6</title>
<g id="a_node6"><a xlink:title=" ">
<polygon fill="white" stroke="#bfbfbf" points="166,-0.5 166,-19.5 228,-19.5 228,-0.5 166,-0.5"/>
<text text-anchor="middle" x="197" y="-7.5" font-family="Helvetica,sans-Serif" font-size="10.00">stdbool.h</text>
</a>
</g>
</g>
<!-- Node3&#45;&gt;Node6 -->
<g id="edge5" class="edge">
<title>Node3&#45;&gt;Node6</title>
<path fill="none" stroke="midnightblue" d="M701.29,-62.83C610.35,-58.44 413.43,-46.71 238.28,-20.01"/>
<polygon fill="midnightblue" stroke="midnightblue" points="238.78,-16.54 228.37,-18.48 237.72,-23.46 238.78,-16.54"/>
</g>
<!-- Node7 -->
<g id="node7" class="node">
<title>Node7</title>
<g id="a_node7"><a xlink:title=" ">
<polygon fill="white" stroke="#bfbfbf" points="246,-0.5 246,-19.5 296,-19.5 296,-0.5 246,-0.5"/>
<text text-anchor="middle" x="271" y="-7.5" font-family="Helvetica,sans-Serif" font-size="10.00">stdio.h</text>
</a>
</g>
</g>
<!-- Node3&#45;&gt;Node7 -->
<g id="edge6" class="edge">
<title>Node3&#45;&gt;Node7</title>
<path fill="none" stroke="midnightblue" d="M701.36,-62.52C619.98,-57.96 454.98,-46.38 306.37,-19.98"/>
<polygon fill="midnightblue" stroke="midnightblue" points="306.61,-16.46 296.15,-18.13 305.37,-23.35 306.61,-16.46"/>
</g>
<!-- Node8 -->
<g id="node8" class="node">
<title>Node8</title>
<g id="a_node8"><a xlink:title=" ">
<polygon fill="white" stroke="#bfbfbf" points="314,-0.5 314,-19.5 402,-19.5 402,-0.5 314,-0.5"/>
<text text-anchor="middle" x="358" y="-7.5" font-family="Helvetica,sans-Serif" font-size="10.00">lely/can/msg.h</text>
</a>
</g>
</g>
<!-- Node3&#45;&gt;Node8 -->
<g id="edge7" class="edge">
<title>Node3&#45;&gt;Node8</title>
<path fill="none" stroke="midnightblue" d="M701.36,-58.91C636.72,-51.01 521.15,-36.44 412.39,-20.16"/>
<polygon fill="midnightblue" stroke="midnightblue" points="412.64,-16.66 402.23,-18.64 411.6,-23.58 412.64,-16.66"/>
</g>
<!-- Node9 -->
<g id="node9" class="node">
<title>Node9</title>
<g id="a_node9"><a xlink:title=" ">
<polygon fill="white" stroke="#bfbfbf" points="420.5,-0.5 420.5,-19.5 503.5,-19.5 503.5,-0.5 420.5,-0.5"/>
<text text-anchor="middle" x="462" y="-7.5" font-family="Helvetica,sans-Serif" font-size="10.00">lely/can/net.h</text>
</a>
</g>
</g>
<!-- Node3&#45;&gt;Node9 -->
<g id="edge8" class="edge">
<title>Node3&#45;&gt;Node9</title>
<path fill="none" stroke="midnightblue" d="M706.05,-56.44C653.68,-46.69 568.31,-30.8 513.67,-20.62"/>
<polygon fill="midnightblue" stroke="midnightblue" points="513.98,-17.12 503.51,-18.73 512.7,-24 513.98,-17.12"/>
</g>
<!-- Node10 -->
<g id="node10" class="node">
<title>Node10</title>
<g id="a_node10"><a xlink:title=" ">
<polygon fill="white" stroke="#bfbfbf" points="522,-0.5 522,-19.5 600,-19.5 600,-0.5 522,-0.5"/>
<text text-anchor="middle" x="561" y="-7.5" font-family="Helvetica,sans-Serif" font-size="10.00">lely/co/dev.h</text>
</a>
</g>
</g>
<!-- Node3&#45;&gt;Node10 -->
<g id="edge9" class="edge">
<title>Node3&#45;&gt;Node10</title>
<path fill="none" stroke="midnightblue" d="M721.74,-56.44C689.04,-47.2 636.82,-32.44 600.82,-22.26"/>
<polygon fill="midnightblue" stroke="midnightblue" points="601.7,-18.87 591.12,-19.52 599.79,-25.61 601.7,-18.87"/>
</g>
<!-- Node11 -->
<g id="node11" class="node">
<title>Node11</title>
<g id="a_node11"><a xlink:title=" ">
<polygon fill="white" stroke="#bfbfbf" points="618,-0.5 618,-19.5 694,-19.5 694,-0.5 618,-0.5"/>
<text text-anchor="middle" x="656" y="-7.5" font-family="Helvetica,sans-Serif" font-size="10.00">lely/co/obj.h</text>
</a>
</g>
</g>
<!-- Node3&#45;&gt;Node11 -->
<g id="edge10" class="edge">
<title>Node3&#45;&gt;Node11</title>
<path fill="none" stroke="midnightblue" d="M736.58,-56.32C721.46,-47.82 698.18,-34.73 680.53,-24.8"/>
<polygon fill="midnightblue" stroke="midnightblue" points="681.82,-21.51 671.39,-19.65 678.39,-27.61 681.82,-21.51"/>
</g>
<!-- Node12 -->
<g id="node12" class="node">
<title>Node12</title>
<g id="a_node12"><a xlink:title=" ">
<polygon fill="white" stroke="#bfbfbf" points="712,-0.5 712,-19.5 792,-19.5 792,-0.5 712,-0.5"/>
<text text-anchor="middle" x="752" y="-7.5" font-family="Helvetica,sans-Serif" font-size="10.00">lely/co/nmt.h</text>
</a>
</g>
</g>
<!-- Node3&#45;&gt;Node12 -->
<g id="edge11" class="edge">
<title>Node3&#45;&gt;Node12</title>
<path fill="none" stroke="midnightblue" d="M752,-56.08C752,-49.01 752,-38.86 752,-29.99"/>
<polygon fill="midnightblue" stroke="midnightblue" points="755.5,-29.75 752,-19.75 748.5,-29.75 755.5,-29.75"/>
</g>
<!-- Node13 -->
<g id="node13" class="node">
<title>Node13</title>
<g id="a_node13"><a xlink:title=" ">
<polygon fill="white" stroke="#bfbfbf" points="810,-0.5 810,-19.5 898,-19.5 898,-0.5 810,-0.5"/>
<text text-anchor="middle" x="854" y="-7.5" font-family="Helvetica,sans-Serif" font-size="10.00">lely/util/error.h</text>
</a>
</g>
</g>
<!-- Node3&#45;&gt;Node13 -->
<g id="edge12" class="edge">
<title>Node3&#45;&gt;Node13</title>
<path fill="none" stroke="midnightblue" d="M768.39,-56.32C784.67,-47.7 809.87,-34.36 828.72,-24.39"/>
<polygon fill="midnightblue" stroke="midnightblue" points="830.45,-27.43 837.65,-19.65 827.18,-21.24 830.45,-27.43"/>
</g>
<!-- Node14 -->
<g id="node14" class="node">
<title>Node14</title>
<g id="a_node14"><a xlink:title=" ">
<polygon fill="white" stroke="#bfbfbf" points="916.5,-0.5 916.5,-19.5 1021.5,-19.5 1021.5,-0.5 916.5,-0.5"/>
<text text-anchor="middle" x="969" y="-7.5" font-family="Helvetica,sans-Serif" font-size="10.00">lely/util/memory.h</text>
</a>
</g>
</g>
<!-- Node3&#45;&gt;Node14 -->
<g id="edge13" class="edge">
<title>Node3&#45;&gt;Node14</title>
<path fill="none" stroke="midnightblue" d="M786.38,-56.44C823.92,-47.1 884.13,-32.12 925.07,-21.93"/>
<polygon fill="midnightblue" stroke="midnightblue" points="925.92,-25.33 934.78,-19.52 924.23,-18.53 925.92,-25.33"/>
</g>
<!-- Node15 -->
<g id="node15" class="node">
<title>Node15</title>
<g id="a_node15"><a xlink:title=" ">
<polygon fill="white" stroke="#bfbfbf" points="1040,-0.5 1040,-19.5 1152,-19.5 1152,-0.5 1040,-0.5"/>
<text text-anchor="middle" x="1096" y="-7.5" font-family="Helvetica,sans-Serif" font-size="10.00">lely/util/mempool.h</text>
</a>
</g>
</g>
<!-- Node3&#45;&gt;Node15 -->
<g id="edge14" class="edge">
<title>Node3&#45;&gt;Node15</title>
<path fill="none" stroke="midnightblue" d="M802.76,-57.03C863.55,-47.49 965.47,-31.49 1031.71,-21.09"/>
<polygon fill="midnightblue" stroke="midnightblue" points="1032.29,-24.54 1041.62,-19.54 1031.2,-17.63 1032.29,-24.54"/>
</g>
<!-- Node16 -->
<g id="node16" class="node">
<title>Node16</title>
<g id="a_node16"><a xlink:title=" ">
<polygon fill="white" stroke="#bfbfbf" points="1170.5,-0.5 1170.5,-19.5 1223.5,-19.5 1223.5,-0.5 1170.5,-0.5"/>
<text text-anchor="middle" x="1197" y="-7.5" font-family="Helvetica,sans-Serif" font-size="10.00">string.h</text>
</a>
</g>
</g>
<!-- Node3&#45;&gt;Node16 -->
<g id="edge15" class="edge">
<title>Node3&#45;&gt;Node16</title>
<path fill="none" stroke="midnightblue" d="M802.69,-61.64C878.4,-56.14 1025.61,-43.56 1160.27,-19.89"/>
<polygon fill="midnightblue" stroke="midnightblue" points="1161.12,-23.29 1170.35,-18.09 1159.89,-16.4 1161.12,-23.29"/>
</g>
<!-- Node17 -->
<g id="node17" class="node">
<title>Node17</title>
<g id="a_node17"><a xlink:title=" ">
<polygon fill="white" stroke="#bfbfbf" points="1241.5,-0.5 1241.5,-19.5 1324.5,-19.5 1324.5,-0.5 1241.5,-0.5"/>
<text text-anchor="middle" x="1283" y="-7.5" font-family="Helvetica,sans-Serif" font-size="10.00">lely/co/rpdo.h</text>
</a>
</g>
</g>
<!-- Node3&#45;&gt;Node17 -->
<g id="edge16" class="edge">
<title>Node3&#45;&gt;Node17</title>
<path fill="none" stroke="midnightblue" d="M802.71,-61.68C888.79,-55.72 1069.18,-41.91 1231.15,-20.16"/>
<polygon fill="midnightblue" stroke="midnightblue" points="1231.86,-23.59 1241.3,-18.78 1230.92,-16.66 1231.86,-23.59"/>
</g>
<!-- Node18 -->
<g id="node18" class="node">
<title>Node18</title>
<g id="a_node18"><a xlink:title=" ">
<polygon fill="white" stroke="#bfbfbf" points="1342.5,-0.5 1342.5,-19.5 1425.5,-19.5 1425.5,-0.5 1342.5,-0.5"/>
<text text-anchor="middle" x="1384" y="-7.5" font-family="Helvetica,sans-Serif" font-size="10.00">lely/co/tpdo.h</text>
</a>
</g>
</g>
<!-- Node3&#45;&gt;Node18 -->
<g id="edge17" class="edge">
<title>Node3&#45;&gt;Node18</title>
<path fill="none" stroke="midnightblue" d="M802.78,-62.8C902.43,-58.11 1130.75,-45.52 1332.13,-20.13"/>
<polygon fill="midnightblue" stroke="midnightblue" points="1332.83,-23.57 1342.31,-18.83 1331.94,-16.62 1332.83,-23.57"/>
</g>
<!-- Node19 -->
<g id="node19" class="node">
<title>Node19</title>
<g id="a_node19"><a xlink:title=" ">
<polygon fill="white" stroke="#bfbfbf" points="1444,-0.5 1444,-19.5 1536,-19.5 1536,-0.5 1444,-0.5"/>
<text text-anchor="middle" x="1490" y="-7.5" font-family="Helvetica,sans-Serif" font-size="10.00">od_slave_pdo.h</text>
</a>
</g>
</g>
<!-- Node3&#45;&gt;Node19 -->
<g id="edge18" class="edge">
<title>Node3&#45;&gt;Node19</title>
<path fill="none" stroke="midnightblue" d="M802.7,-63.33C914.69,-59.29 1191.75,-47.3 1433.79,-20.03"/>
<polygon fill="midnightblue" stroke="midnightblue" points="1434.29,-23.49 1443.83,-18.89 1433.5,-16.54 1434.29,-23.49"/>
</g>
<!-- Node20 -->
<g id="node20" class="node">
<title>Node20</title>
<g id="a_node20"><a xlink:title=" ">
<polygon fill="white" stroke="#bfbfbf" points="1554.5,-0.5 1554.5,-19.5 1655.5,-19.5 1655.5,-0.5 1554.5,-0.5"/>
<text text-anchor="middle" x="1605" y="-7.5" font-family="Helvetica,sans-Serif" font-size="10.00">od_master_pdo.h</text>
</a>
</g>
</g>
<!-- Node3&#45;&gt;Node20 -->
<g id="edge19" class="edge">
<title>Node3&#45;&gt;Node20</title>
<path fill="none" stroke="midnightblue" d="M802.69,-63.74C927.11,-60.31 1257.65,-49.1 1544.13,-19.98"/>
<polygon fill="midnightblue" stroke="midnightblue" points="1544.71,-23.44 1554.3,-18.94 1544,-16.48 1544.71,-23.44"/>
</g>
</g>
</svg>
