<?xml version="1.0" encoding="UTF-8" standalone="no"?>
<!DOCTYPE svg PUBLIC "-//W3C//DTD SVG 1.1//EN"
 "http://www.w3.org/Graphics/SVG/1.1/DTD/svg11.dtd">
<!-- Generated by graphviz version 2.43.0 (0)
 -->
<!-- Title: inc/canopen_space.h Pages: 1 -->
<svg width="1664pt" height="84pt"
 viewBox="0.00 0.00 1663.50 84.00" xmlns="http://www.w3.org/2000/svg" xmlns:xlink="http://www.w3.org/1999/xlink">
<g id="graph0" class="graph" transform="scale(1 1) rotate(0) translate(4 80)">
<title>inc/canopen_space.h</title>
<polygon fill="white" stroke="transparent" points="-4,4 -4,-80 1659.5,-80 1659.5,4 -4,4"/>
<!-- Node1 -->
<g id="node1" class="node">
<title>Node1</title>
<g id="a_node1"><a xlink:title="Lightweight CANopen/Lely&#45;core “space” wrapper (init/start/tick/rx/tx helpers).">
<polygon fill="#bfbfbf" stroke="black" points="693,-56.5 693,-75.5 811,-75.5 811,-56.5 693,-56.5"/>
<text text-anchor="middle" x="752" y="-63.5" font-family="Helvetica,sans-Serif" font-size="10.00">inc/canopen_space.h</text>
</a>
</g>
</g>
<!-- Node2 -->
<g id="node2" class="node">
<title>Node2</title>
<g id="a_node2"><a xlink:title=" ">
<polygon fill="white" stroke="#bfbfbf" points="0,-0.5 0,-19.5 76,-19.5 76,-0.5 0,-0.5"/>
<text text-anchor="middle" x="38" y="-7.5" font-family="Helvetica,sans-Serif" font-size="10.00">lely/config.h</text>
</a>
</g>
</g>
<!-- Node1&#45;&gt;Node2 -->
<g id="edge1" class="edge">
<title>Node1&#45;&gt;Node2</title>
<path fill="none" stroke="midnightblue" d="M692.88,-63.43C577.92,-59.85 316.13,-49.13 86.38,-20.02"/>
<polygon fill="midnightblue" stroke="midnightblue" points="86.52,-16.51 76.16,-18.71 85.63,-23.45 86.52,-16.51"/>
</g>
<!-- Node3 -->
<g id="node3" class="node">
<title>Node3</title>
<g id="a_node3"><a xlink:title=" ">
<polygon fill="white" stroke="#bfbfbf" points="94.5,-0.5 94.5,-19.5 147.5,-19.5 147.5,-0.5 94.5,-0.5"/>
<text text-anchor="middle" x="121" y="-7.5" font-family="Helvetica,sans-Serif" font-size="10.00">stdint.h</text>
</a>
</g>
</g>
<!-- Node1&#45;&gt;Node3 -->
<g id="edge2" class="edge">
<title>Node1&#45;&gt;Node3</title>
<path fill="none" stroke="midnightblue" d="M692.92,-63.84C587.29,-61.05 359.07,-51.75 157.51,-19.78"/>
<polygon fill="midnightblue" stroke="midnightblue" points="158.06,-16.32 147.63,-18.19 156.95,-23.24 158.06,-16.32"/>
</g>
<!-- Node4 -->
<g id="node4" class="node">
<title>Node4</title>
<g id="a_node4"><a xlink:title=" ">
<polygon fill="white" stroke="#bfbfbf" points="166,-0.5 166,-19.5 228,-19.5 228,-0.5 166,-0.5"/>
<text text-anchor="middle" x="197" y="-7.5" font-family="Helvetica,sans-Serif" font-size="10.00">stdbool.h</text>
</a>
</g>
</g>
<!-- Node1&#45;&gt;Node4 -->
<g id="edge3" class="edge">
<title>Node1&#45;&gt;Node4</title>
<path fill="none" stroke="midnightblue" d="M692.99,-62.42C598.78,-57.74 408.49,-45.97 238.26,-20"/>
<polygon fill="midnightblue" stroke="midnightblue" points="238.78,-16.54 228.37,-18.48 237.72,-23.46 238.78,-16.54"/>
</g>
<!-- Node5 -->
<g id="node5" class="node">
<title>Node5</title>
<g id="a_node5"><a xlink:title=" ">
<polygon fill="white" stroke="#bfbfbf" points="246,-0.5 246,-19.5 296,-19.5 296,-0.5 246,-0.5"/>
<text text-anchor="middle" x="271" y="-7.5" font-family="Helvetica,sans-Serif" font-size="10.00">stdio.h</text>
</a>
</g>
</g>
<!-- Node1&#45;&gt;Node5 -->
<g id="edge4" class="edge">
<title>Node1&#45;&gt;Node5</title>
<path fill="none" stroke="midnightblue" d="M692.65,-62.02C608.57,-57.15 449.89,-45.51 306.04,-19.92"/>
<polygon fill="midnightblue" stroke="midnightblue" points="306.61,-16.47 296.15,-18.13 305.37,-23.35 306.61,-16.47"/>
</g>
<!-- Node6 -->
<g id="node6" class="node">
<title>Node6</title>
<g id="a_node6"><a xlink:title=" ">
<polygon fill="white" stroke="#bfbfbf" points="314,-0.5 314,-19.5 402,-19.5 402,-0.5 314,-0.5"/>
<text text-anchor="middle" x="358" y="-7.5" font-family="Helvetica,sans-Serif" font-size="10.00">lely/can/msg.h</text>
</a>
</g>
</g>
<!-- Node1&#45;&gt;Node6 -->
<g id="edge5" class="edge">
<title>Node1&#45;&gt;Node6</title>
<path fill="none" stroke="midnightblue" d="M692.77,-57.86C626.8,-49.75 516.75,-35.78 412.31,-20.15"/>
<polygon fill="midnightblue" stroke="midnightblue" points="412.64,-16.66 402.23,-18.64 411.59,-23.58 412.64,-16.66"/>
</g>
<!-- Node7 -->
<g id="node7" class="node">
<title>Node7</title>
<g id="a_node7"><a xlink:title=" ">
<polygon fill="white" stroke="#bfbfbf" points="420.5,-0.5 420.5,-19.5 503.5,-19.5 503.5,-0.5 420.5,-0.5"/>
<text text-anchor="middle" x="462" y="-7.5" font-family="Helvetica,sans-Serif" font-size="10.00">lely/can/net.h</text>
</a>
</g>
</g>
<!-- Node1&#45;&gt;Node7 -->
<g id="edge6" class="edge">
<title>Node1&#45;&gt;Node7</title>
<path fill="none" stroke="midnightblue" d="M706.05,-56.44C653.68,-46.69 568.31,-30.8 513.67,-20.62"/>
<polygon fill="midnightblue" stroke="midnightblue" points="513.98,-17.12 503.51,-18.73 512.7,-24 513.98,-17.12"/>
</g>
<!-- Node8 -->
<g id="node8" class="node">
<title>Node8</title>
<g id="a_node8"><a xlink:title=" ">
<polygon fill="white" stroke="#bfbfbf" points="522,-0.5 522,-19.5 600,-19.5 600,-0.5 522,-0.5"/>
<text text-anchor="middle" x="561" y="-7.5" font-family="Helvetica,sans-Serif" font-size="10.00">lely/co/dev.h</text>
</a>
</g>
</g>
<!-- Node1&#45;&gt;Node8 -->
<g id="edge7" class="edge">
<title>Node1&#45;&gt;Node8</title>
<path fill="none" stroke="midnightblue" d="M721.74,-56.44C689.04,-47.2 636.82,-32.44 600.82,-22.26"/>
<polygon fill="midnightblue" stroke="midnightblue" points="601.7,-18.87 591.12,-19.52 599.79,-25.61 601.7,-18.87"/>
</g>
<!-- Node9 -->
<g id="node9" class="node">
<title>Node9</title>
<g id="a_node9"><a xlink:title=" ">
<polygon fill="white" stroke="#bfbfbf" points="618,-0.5 618,-19.5 694,-19.5 694,-0.5 618,-0.5"/>
<text text-anchor="middle" x="656" y="-7.5" font-family="Helvetica,sans-Serif" font-size="10.00">lely/co/obj.h</text>
</a>
</g>
</g>
<!-- Node1&#45;&gt;Node9 -->
<g id="edge8" class="edge">
<title>Node1&#45;&gt;Node9</title>
<path fill="none" stroke="midnightblue" d="M736.58,-56.32C721.46,-47.82 698.18,-34.73 680.53,-24.8"/>
<polygon fill="midnightblue" stroke="midnightblue" points="681.82,-21.51 671.39,-19.65 678.39,-27.61 681.82,-21.51"/>
</g>
<!-- Node10 -->
<g id="node10" class="node">
<title>Node10</title>
<g id="a_node10"><a xlink:title=" ">
<polygon fill="white" stroke="#bfbfbf" points="712,-0.5 712,-19.5 792,-19.5 792,-0.5 712,-0.5"/>
<text text-anchor="middle" x="752" y="-7.5" font-family="Helvetica,sans-Serif" font-size="10.00">lely/co/nmt.h</text>
</a>
</g>
</g>
<!-- Node1&#45;&gt;Node10 -->
<g id="edge9" class="edge">
<title>Node1&#45;&gt;Node10</title>
<path fill="none" stroke="midnightblue" d="M752,-56.08C752,-49.01 752,-38.86 752,-29.99"/>
<polygon fill="midnightblue" stroke="midnightblue" points="755.5,-29.75 752,-19.75 748.5,-29.75 755.5,-29.75"/>
</g>
<!-- Node11 -->
<g id="node11" class="node">
<title>Node11</title>
<g id="a_node11"><a xlink:title=" ">
<polygon fill="white" stroke="#bfbfbf" points="810,-0.5 810,-19.5 898,-19.5 898,-0.5 810,-0.5"/>
<text text-anchor="middle" x="854" y="-7.5" font-family="Helvetica,sans-Serif" font-size="10.00">lely/util/error.h</text>
</a>
</g>
</g>
<!-- Node1&#45;&gt;Node11 -->
<g id="edge10" class="edge">
<title>Node1&#45;&gt;Node11</title>
<path fill="none" stroke="midnightblue" d="M768.39,-56.32C784.67,-47.7 809.87,-34.36 828.72,-24.39"/>
<polygon fill="midnightblue" stroke="midnightblue" points="830.45,-27.43 837.65,-19.65 827.18,-21.24 830.45,-27.43"/>
</g>
<!-- Node12 -->
<g id="node12" class="node">
<title>Node12</title>
<g id="a_node12"><a xlink:title=" ">
<polygon fill="white" stroke="#bfbfbf" points="916.5,-0.5 916.5,-19.5 1021.5,-19.5 1021.5,-0.5 916.5,-0.5"/>
<text text-anchor="middle" x="969" y="-7.5" font-family="Helvetica,sans-Serif" font-size="10.00">lely/util/memory.h</text>
</a>
</g>
</g>
<!-- Node1&#45;&gt;Node12 -->
<g id="edge11" class="edge">
<title>Node1&#45;&gt;Node12</title>
<path fill="none" stroke="midnightblue" d="M786.38,-56.44C823.92,-47.1 884.13,-32.12 925.07,-21.93"/>
<polygon fill="midnightblue" stroke="midnightblue" points="925.92,-25.33 934.78,-19.52 924.23,-18.53 925.92,-25.33"/>
</g>
<!-- Node13 -->
<g id="node13" class="node">
<title>Node13</title>
<g id="a_node13"><a xlink:title=" ">
<polygon fill="white" stroke="#bfbfbf" points="1040,-0.5 1040,-19.5 1152,-19.5 1152,-0.5 1040,-0.5"/>
<text text-anchor="middle" x="1096" y="-7.5" font-family="Helvetica,sans-Serif" font-size="10.00">lely/util/mempool.h</text>
</a>
</g>
</g>
<!-- Node1&#45;&gt;Node13 -->
<g id="edge12" class="edge">
<title>Node1&#45;&gt;Node13</title>
<path fill="none" stroke="midnightblue" d="M806.51,-56.44C867.65,-46.85 966.74,-31.29 1031.64,-21.1"/>
<polygon fill="midnightblue" stroke="midnightblue" points="1032.41,-24.52 1041.75,-19.52 1031.33,-17.61 1032.41,-24.52"/>
</g>
<!-- Node14 -->
<g id="node14" class="node">
<title>Node14</title>
<g id="a_node14"><a xlink:title=" ">
<polygon fill="white" stroke="#bfbfbf" points="1170.5,-0.5 1170.5,-19.5 1223.5,-19.5 1223.5,-0.5 1170.5,-0.5"/>
<text text-anchor="middle" x="1197" y="-7.5" font-family="Helvetica,sans-Serif" font-size="10.00">string.h</text>
</a>
</g>
</g>
<!-- Node1&#45;&gt;Node14 -->
<g id="edge13" class="edge">
<title>Node1&#45;&gt;Node14</title>
<path fill="none" stroke="midnightblue" d="M811.29,-61.01C889.14,-55.2 1030.2,-42.76 1160.21,-19.9"/>
<polygon fill="midnightblue" stroke="midnightblue" points="1161.12,-23.29 1170.35,-18.09 1159.89,-16.4 1161.12,-23.29"/>
</g>
<!-- Node15 -->
<g id="node15" class="node">
<title>Node15</title>
<g id="a_node15"><a xlink:title=" ">
<polygon fill="white" stroke="#bfbfbf" points="1241.5,-0.5 1241.5,-19.5 1324.5,-19.5 1324.5,-0.5 1241.5,-0.5"/>
<text text-anchor="middle" x="1283" y="-7.5" font-family="Helvetica,sans-Serif" font-size="10.00">lely/co/rpdo.h</text>
</a>
</g>
</g>
<!-- Node1&#45;&gt;Node15 -->
<g id="edge14" class="edge">
<title>Node1&#45;&gt;Node15</title>
<path fill="none" stroke="midnightblue" d="M811.05,-61.1C900,-54.86 1073.87,-41.28 1230.98,-20.18"/>
<polygon fill="midnightblue" stroke="midnightblue" points="1231.86,-23.59 1241.3,-18.78 1230.92,-16.66 1231.86,-23.59"/>
</g>
<!-- Node16 -->
<g id="node16" class="node">
<title>Node16</title>
<g id="a_node16"><a xlink:title=" ">
<polygon fill="white" stroke="#bfbfbf" points="1342.5,-0.5 1342.5,-19.5 1425.5,-19.5 1425.5,-0.5 1342.5,-0.5"/>
<text text-anchor="middle" x="1384" y="-7.5" font-family="Helvetica,sans-Serif" font-size="10.00">lely/co/tpdo.h</text>
</a>
</g>
</g>
<!-- Node1&#45;&gt;Node16 -->
<g id="edge15" class="edge">
<title>Node1&#45;&gt;Node16</title>
<path fill="none" stroke="midnightblue" d="M811.27,-62.4C914.93,-57.41 1136.04,-44.85 1332.1,-20.13"/>
<polygon fill="midnightblue" stroke="midnightblue" points="1332.83,-23.57 1342.31,-18.83 1331.94,-16.62 1332.83,-23.57"/>
</g>
<!-- Node17 -->
<g id="node17" class="node">
<title>Node17</title>
<g id="a_node17"><a xlink:title=" ">
<polygon fill="white" stroke="#bfbfbf" points="1444,-0.5 1444,-19.5 1536,-19.5 1536,-0.5 1444,-0.5"/>
<text text-anchor="middle" x="1490" y="-7.5" font-family="Helvetica,sans-Serif" font-size="10.00">od_slave_pdo.h</text>
</a>
</g>
</g>
<!-- Node1&#45;&gt;Node17 -->
<g id="edge16" class="edge">
<title>Node1&#45;&gt;Node17</title>
<path fill="none" stroke="midnightblue" d="M811.1,-63.03C928.03,-58.7 1197.31,-46.67 1433.67,-20.04"/>
<polygon fill="midnightblue" stroke="midnightblue" points="1434.29,-23.49 1443.83,-18.89 1433.5,-16.54 1434.29,-23.49"/>
</g>
<!-- Node18 -->
<g id="node18" class="node">
<title>Node18</title>
<g id="a_node18"><a xlink:title=" ">
<polygon fill="white" stroke="#bfbfbf" points="1554.5,-0.5 1554.5,-19.5 1655.5,-19.5 1655.5,-0.5 1554.5,-0.5"/>
<text text-anchor="middle" x="1605" y="-7.5" font-family="Helvetica,sans-Serif" font-size="10.00">od_master_pdo.h</text>
</a>
</g>
</g>
<!-- Node1&#45;&gt;Node18 -->
<g id="edge17" class="edge">
<title>Node1&#45;&gt;Node18</title>
<path fill="none" stroke="midnightblue" d="M811.34,-63.5C941.89,-59.8 1264.03,-48.46 1544.35,-19.96"/>
<polygon fill="midnightblue" stroke="midnightblue" points="1544.71,-23.44 1554.3,-18.94 1544,-16.48 1544.71,-23.44"/>
</g>
</g>
</svg>
