<?xml version="1.0" encoding="UTF-8" standalone="no"?>
<!DOCTYPE svg PUBLIC "-//W3C//DTD SVG 1.1//EN"
 "http://www.w3.org/Graphics/SVG/1.1/DTD/svg11.dtd">
<!-- Generated by graphviz version 2.43.0 (0)
 -->
<!-- Title: inc/cia402_wrapper.h Pages: 1 -->
<svg width="228pt" height="140pt"
 viewBox="0.00 0.00 228.00 140.00" xmlns="http://www.w3.org/2000/svg" xmlns:xlink="http://www.w3.org/1999/xlink">
<g id="graph0" class="graph" transform="scale(1 1) rotate(0) translate(4 136)">
<title>inc/cia402_wrapper.h</title>
<polygon fill="white" stroke="transparent" points="-4,4 -4,-136 224,-136 224,4 -4,4"/>
<!-- Node1 -->
<g id="node1" class="node">
<title>Node1</title>
<g id="a_node1"><a xlink:title="Minimal CiA&#45;402 helper wrapper for RPDO1/TPDO1 (master + actuator roles).">
<polygon fill="#bfbfbf" stroke="black" points="41,-112.5 41,-131.5 160,-131.5 160,-112.5 41,-112.5"/>
<text text-anchor="middle" x="100.5" y="-119.5" font-family="Helvetica,sans-Serif" font-size="10.00">inc/cia402_wrapper.h</text>
</a>
</g>
</g>
<!-- Node2 -->
<g id="node2" class="node">
<title>Node2</title>
<g id="a_node2"><a xlink:href="actuator_8h.html" target="_top" xlink:title="Small driver/cache layer for CiA&#45;402 over CANopen (RPDO1/TPDO1).">
<polygon fill="white" stroke="black" points="0,-56.5 0,-75.5 83,-75.5 83,-56.5 0,-56.5"/>
<text text-anchor="middle" x="41.5" y="-63.5" font-family="Helvetica,sans-Serif" font-size="10.00">inc/actuator.h</text>
</a>
</g>
</g>
<!-- Node1&#45;&gt;Node2 -->
<g id="edge1" class="edge">
<title>Node1&#45;&gt;Node2</title>
<path fill="none" stroke="midnightblue" d="M83.61,-105.54C73.09,-95.91 59.93,-83.87 51.15,-75.83"/>
<polygon fill="midnightblue" stroke="midnightblue" points="81.28,-108.15 91.02,-112.32 86.01,-102.99 81.28,-108.15"/>
</g>
<!-- Node4 -->
<g id="node4" class="node">
<title>Node4</title>
<g id="a_node4"><a xlink:href="cia402__wrapper_8c.html" target="_top" xlink:title="Implementation of minimal CiA&#45;402 helper wrapper for RPDO1/TPDO1.">
<polygon fill="white" stroke="black" points="101,-56.5 101,-75.5 220,-75.5 220,-56.5 101,-56.5"/>
<text text-anchor="middle" x="160.5" y="-63.5" font-family="Helvetica,sans-Serif" font-size="10.00">src/cia402_wrapper.c</text>
</a>
</g>
</g>
<!-- Node1&#45;&gt;Node4 -->
<g id="edge3" class="edge">
<title>Node1&#45;&gt;Node4</title>
<path fill="none" stroke="midnightblue" d="M117.68,-105.54C128.38,-95.91 141.76,-83.87 150.68,-75.83"/>
<polygon fill="midnightblue" stroke="midnightblue" points="115.23,-103.03 110.14,-112.32 119.91,-108.24 115.23,-103.03"/>
</g>
<!-- Node3 -->
<g id="node3" class="node">
<title>Node3</title>
<g id="a_node3"><a xlink:href="actuator_8c.html" target="_top" xlink:title="Implementation of actuator cache layer for CiA&#45;402 over CANopen (RPDO1/TPDO1).">
<polygon fill="white" stroke="black" points="0.5,-0.5 0.5,-19.5 82.5,-19.5 82.5,-0.5 0.5,-0.5"/>
<text text-anchor="middle" x="41.5" y="-7.5" font-family="Helvetica,sans-Serif" font-size="10.00">src/actuator.c</text>
</a>
</g>
</g>
<!-- Node2&#45;&gt;Node3 -->
<g id="edge2" class="edge">
<title>Node2&#45;&gt;Node3</title>
<path fill="none" stroke="midnightblue" d="M41.5,-45.8C41.5,-36.91 41.5,-26.78 41.5,-19.75"/>
<polygon fill="midnightblue" stroke="midnightblue" points="38,-46.08 41.5,-56.08 45,-46.08 38,-46.08"/>
</g>
</g>
</svg>
